<svg xmlns="http://www.w3.org/2000/svg" width="32" height="32" viewBox="0 0 32 32">
  <defs>
    <linearGradient id="grad" x1="0%" y1="0%" x2="100%" y2="100%">
      <stop offset="0%" style="stop-color:#3b82f6;stop-opacity:1" />
      <stop offset="100%" style="stop-color:#1d4ed8;stop-opacity:1" />
    </linearGradient>
  </defs>
  <rect width="32" height="32" rx="6" fill="url(#grad)"/>
  <path d="M16 6c-2.2 0-4 1.8-4 4v2h-1c-1.1 0-2 .9-2 2v10c0 1.1.9 2 2 2h10c1.1 0 2-.9 2-2V14c0-1.1-.9-2-2-2h-1v-2c0-2.2-1.8-4-4-4zm0 2c1.1 0 2 .9 2 2v2h-4v-2c0-1.1.9-2 2-2z" fill="white"/>
</svg>